<svg xmlns="http://www.w3.org/2000/svg" id="svg28607" width="1000" height="417.32324" version="1.1" viewBox="0 0 1000 417.32109"><defs id="defs28611"><linearGradient id="lozenge_1_" x1="323.49701" x2="323.49701" y1="175.4245" y2="325.65271" gradientTransform="matrix(1.65016 0 0 1.65016 -162.966 -162.864)" gradientUnits="userSpaceOnUse"><stop id="stop45" offset="0" style="stop-color:#e42526;stop-opacity:1"/><stop id="stop109" offset="0.72937906" style="stop-color:#de2426;stop-opacity:1"/><stop id="stop47" offset="1" style="stop-color:#bf1f26;stop-opacity:1"/></linearGradient></defs><g id="layer2" transform="translate(16.323 -254.042)"><g id="g4711" transform="matrix(1.68375 0 0 1.68375 11.16 -173.7)"><path id="lozenge_2_-9" d="M574.268 307.506s-3.465-24.257-14.026-34.983c-13.531-14.026-28.548-14.026-35.478-14.851-49.505-3.63-123.927-3.63-123.927-3.63h-.165s-74.257 0-123.927 3.63c-6.93.825-21.947.825-35.479 14.851-10.56 10.726-14.026 34.983-14.026 34.983s-3.465 28.548-3.465 57.096v26.732c0 28.548 3.465 57.096 3.465 57.096s3.465 24.257 14.026 34.983c13.532 14.026 31.188 13.531 39.11 15.017 28.382 2.64 120.296 3.465 120.296 3.465s74.422-.165 123.927-3.63c6.93-.826 21.947-.826 35.478-14.852 10.56-10.726 14.026-34.983 14.026-34.983s3.466-28.548 3.466-57.096v-26.732c.33-28.548-3.3-57.096-3.3-57.096z" style="fill:#ec222c;fill-opacity:1;stroke:none;stroke-width:1.65016"/><path id="y_2_-5" d="M37.142 389.52v65.18H13.38v-65.18l-29.703-94.885H8.594l16.832 62.376 16.501-62.376h24.918Zm88.944-15.512c0-12.872-2.708-22.393-7.096-28.383-6.008-8.202-15.347-11.551-24.918-11.551-10.726 0-18.892 3.361-24.917 11.551-4.537 6.168-7.096 15.841-7.096 28.548v42.574c0 12.706 2.195 21.415 6.766 27.557 5.99 8.05 15.677 12.542 25.247 12.542 9.406 0 19.224-4.353 25.413-12.542 4.538-6.004 6.6-14.851 6.6-27.557zm-22.608 45.049c-.041 11.886-2.475 17.822-9.406 17.822-6.93 0-9.405-5.862-9.405-17.822v-47.36c0-11.884 2.475-17.491 9.405-17.491 6.931 0 9.613 5.477 9.571 17.491zm79.373 35.643v-13.036c-8.58 9.736-15.842 14.687-23.597 14.687-6.931 0-11.731-3.295-14.192-9.241-1.5-3.625-2.475-9.241-2.475-17.492v-94.884h22.607v97.194c0 3.337 1.98 4.62 4.786 4.62 4.29 0 8.25-3.795 13.036-10.395v-91.42h22.607V454.7z" style="fill:#000;stroke:none;stroke-width:1.65016"/><path id="T-8" d="M327.735 294.635v22.607h-26.238V454.7H277.9V317.242h-24.917v-22.607zM364.368 454.7v-13.036c-8.58 9.736-15.841 14.687-23.597 14.687-6.93 0-11.73-3.295-14.191-9.241-1.5-3.625-2.476-9.241-2.476-17.492v-95.05h22.608v97.36c0 3.337 1.98 4.62 4.785 4.62 4.29 0 8.25-3.795 13.036-10.395v-91.42h22.607V454.7zm84.323-120.461c-7.92 0-15.676 4.785-22.607 13.366v-52.97h-21.287V454.7h21.287v-11.88c7.096 8.91 15.017 13.53 22.607 13.53 8.581 0 14.911-4.601 17.657-13.366 1.545-4.932 2.31-12.706 2.31-23.762v-47.36c0-11.22-1.42-18.996-2.805-23.597-2.74-9.096-8.58-14.026-17.162-14.026zm-2.475 86.138c0 11.881-2.805 16.337-8.91 16.337-3.466 0-7.592-1.816-11.222-5.446v-71.947c3.63-3.465 7.59-5.445 11.221-5.445 6.27 0 8.911 3.465 8.911 15.346zm101.98-21.452v-24.257c0-12.706-2.51-21.922-6.93-27.888-5.975-8.06-14.522-12.376-25.413-12.376s-19.467 4.294-25.743 12.376c-4.615 5.944-7.26 15.842-7.26 28.383v41.584c0 12.54 2.914 21.494 7.425 27.392 6.216 8.128 14.687 12.212 25.908 12.212 11.22 0 19.96-4.295 25.907-12.872 2.634-3.8 4.38-8.074 4.95-12.87.255-2.137.826-7.097.826-14.027v-3.3h-22.607c0 8.58.053 13.705-.165 14.85-1.103 5.787-4.29 8.582-9.571 8.582-7.426 0-10.066-5.445-10.066-16.502v-21.287zm-42.74-30.858c0-11.056 2.971-14.026 10.232-14.026 7.095 0 9.9 3.3 9.9 14.191v12.871h-20.131z" style="fill:#fff;stroke:none;stroke-width:1.65016"/></g></g><style>.st1{fill:#fff}</style></svg>